<?xml version="1.0" encoding="utf-8"?>
<!-- Generator: Adobe Illustrator 24.2.0, SVG Export Plug-In . SVG Version: 6.00 Build 0)  -->
<svg version="1.1" id="Layer_1" xmlns="http://www.w3.org/2000/svg" xmlns:xlink="http://www.w3.org/1999/xlink" x="0px" y="0px"
	 viewBox="0 0 900 500" style="enable-background:new 0 0 900 500;" xml:space="preserve">
<style type="text/css">
	.st0{fill:#565656;}
	.st1{fill:#5AD817;}
	.st2{fill-rule:evenodd;clip-rule:evenodd;fill:#5AD817;}
</style>
<desc>Created with Fabric.js 4.2.0</desc>
<g id="b16c4a16-022b-4ce2-aee8-35c798b61f5e" transform="matrix(Infinity NaN NaN Infinity 0 0)">
</g>
<g transform="matrix(1.68 0 0 1.68 450 250)">
	<g vector-effect="non-scaling-stroke">
		<g id="Path-Copy-2" transform="matrix(1 0 0 1 -155.89 64.6)">
			<path vector-effect="non-scaling-stroke" class="st0" d="M30.1,49.6L80.4-69c1-2.4-0.1-5.3-2.5-6.3c-0.6-0.3-1.2-0.4-1.9-0.4
				H51.5c-4,0-7.5,2.4-9,6.1L8.2,19.6c-1,2.5-3.7,3.7-6.2,2.8c-1.3-0.5-2.3-1.5-2.7-2.7l-34.6-89.2c-1.4-3.7-5-6.1-8.9-6.1h-24.5
				c-2.7,0-4.8,2.1-4.8,4.8c0,0.6,0.1,1.3,0.4,1.9l50.5,118.7c4.5,10.6,14.9,17.5,26.4,17.5C15.2,67.1,25.6,60.2,30.1,49.6z"/>
		</g>
		<g id="Path-Copy-3" transform="matrix(1 0 0 -1 -35.89 64.6)">
			<path vector-effect="non-scaling-stroke" class="st1" d="M30.1,58.2L80.4-60.4c1-2.4-0.1-5.3-2.5-6.3c-0.6-0.3-1.2-0.4-1.9-0.4
				H51.5c-4,0-7.5,2.4-9,6.1L8.3,27.9c-1,2.5-3.7,3.7-6.2,2.8c-1.3-0.5-2.3-1.5-2.8-2.8l-21-56.1l0,0l-1.5-4.1
				c-0.6-1.6,0.2-3.3,1.8-3.9c0.3-0.1,0.7-0.2,1.1-0.2H-1c4.1,0,7.8-2.5,9.3-6.4l4.2-10.8c2-5.2-0.6-10.9-5.7-12.9
				c-1.1-0.4-2.4-0.7-3.6-0.7h-72c-2.7,0-4.8,2.1-4.8,4.8c0,0.6,0.1,1.3,0.4,1.9l50.5,118.7c4.5,10.6,14.9,17.5,26.4,17.5
				C15.2,75.7,25.6,68.8,30.1,58.2z"/>
		</g>
		<g id="Path-Copy-5" transform="matrix(1 0 0 1 64.61 64.17)">
			<path vector-effect="non-scaling-stroke" class="st1" d="M21.1,57.4V-66c0-5.3-4.3-9.6-9.6-9.6H-4.4c-5.3,0-9.6,4.3-9.6,9.6V57.4
				c0,5.3,4.3,9.6,9.6,9.6h15.9C16.8,67,21.1,62.7,21.1,57.4z"/>
		</g>
		<g id="Path-Copy-6" transform="matrix(1 0 0 1 162.35 64.46)">
			<path vector-effect="non-scaling-stroke" class="st0" d="M-24.4,62.3l24-36.9C1,23.2,3.9,22.5,6.2,24c0.6,0.4,1,0.8,1.4,1.4
				l23.9,36.8c1.8,2.8,4.9,4.4,8.3,4.4l32.2-0.7c1.3,0,2.4-1.1,2.4-2.4c0-0.5-0.2-0.9-0.4-1.3L30.6,0.1c-2.3-3.2-2.3-7.5-0.1-10.8
				l40.5-60.8c0.7-1.1,0.4-2.6-0.7-3.3c-0.4-0.3-0.9-0.4-1.3-0.4H37c-3.4,0-6.6,1.8-8.3,4.8l-21,36.2c-1.3,2.3-4.3,3.1-6.6,1.7
				c-0.7-0.4-1.3-1-1.7-1.7l-21-36.2c-1.7-3-4.9-4.8-8.3-4.8h-32c-1.3,0-2.4,1.1-2.4,2.4c0,0.5,0.1,0.9,0.4,1.3l40.6,60.8
				c2.2,3.3,2.1,7.5-0.1,10.8l-43.3,62.9c-0.8,1.1-0.5,2.6,0.6,3.3c0.4,0.3,0.9,0.4,1.4,0.4h32.3C-29.2,66.7-26.2,65-24.4,62.3z"/>
		</g>
		<g id="Oval" transform="matrix(-0.6 0.8 -0.8 -0.6 25.07 -47.82)">
			<ellipse vector-effect="non-scaling-stroke" class="st2" cx="-5.6" cy="-0.3" rx="19.5" ry="29.5"/>
		</g>
		<g id="Oval_1_" transform="matrix(0.99 -0.14 0.14 0.99 91.08 -116.41)">
			
				<ellipse vector-effect="non-scaling-stroke" transform="matrix(-1 2.534436e-06 -2.534436e-06 -1 8.2775 -7.5134)" class="st2" cx="4.1" cy="-3.8" rx="8" ry="12"/>
		</g>
		<g id="Oval-Copy" transform="matrix(0.74 -0.67 0.67 0.74 71.41 -126.9)">
			
				<ellipse vector-effect="non-scaling-stroke" transform="matrix(-1 2.541163e-06 -2.541163e-06 -1 11.0846 -1.5817)" class="st2" cx="5.5" cy="-0.8" rx="5" ry="7.5"/>
		</g>
		<g id="Oval_2_" transform="matrix(0.8 0.6 -0.6 0.8 99.19 -83.8)">
			
				<ellipse vector-effect="non-scaling-stroke" transform="matrix(2.523261e-06 1 -1 2.523261e-06 -5.3037 -5.8597)" class="st2" cx="0.3" cy="-5.6" rx="18" ry="12"/>
		</g>
		<g id="Oval_3_" transform="matrix(0.14 0.99 -0.99 0.14 78.95 -50.27)">
			
				<ellipse vector-effect="non-scaling-stroke" transform="matrix(2.534436e-06 1 -1 2.534436e-06 -7.8955 -0.382)" class="st2" cx="-3.8" cy="-4.1" rx="23" ry="15.5"/>
		</g>
	</g>
</g>
</svg>
